<svg width="85" height="84" viewBox="0 0 85 84" fill="none" xmlns="http://www.w3.org/2000/svg">
<g clip-path="url(#clip0_19_49)">
<path d="M42.52 0C19.315 0 0.52002 18.795 0.52002 42C0.52002 60.585 12.5425 76.2825 29.2375 81.8475C31.3375 82.215 32.125 80.955 32.125 79.8525C32.125 78.855 32.0725 75.5475 32.0725 72.03C21.52 73.9725 18.79 69.4575 17.95 67.095C17.4775 65.8875 15.43 62.16 13.645 61.1625C12.175 60.375 10.075 58.4325 13.5925 58.38C16.9 58.3275 19.2625 61.425 20.05 62.685C23.83 69.0375 29.8675 67.2525 32.2825 66.15C32.65 63.42 33.7525 61.5825 34.96 60.5325C25.615 59.4825 15.85 55.86 15.85 39.795C15.85 35.2275 17.4775 31.4475 20.155 28.5075C19.735 27.4575 18.265 23.1525 20.575 17.3775C20.575 17.3775 24.0925 16.275 32.125 21.6825C35.485 20.7375 39.055 20.265 42.625 20.265C46.195 20.265 49.765 20.7375 53.125 21.6825C61.1575 16.2225 64.675 17.3775 64.675 17.3775C66.985 23.1525 65.515 27.4575 65.095 28.5075C67.7725 31.4475 69.4 35.175 69.4 39.795C69.4 55.9125 59.5825 59.4825 50.2375 60.5325C51.76 61.845 53.0725 64.365 53.0725 68.3025C53.0725 73.92 53.02 78.435 53.02 79.8525C53.02 80.955 53.8075 82.2675 55.9075 81.8475C64.2457 79.0334 71.4913 73.675 76.6242 66.5267C81.757 59.3784 84.5186 50.8003 84.52 42C84.52 18.795 65.725 0 42.52 0Z" fill="black"/>
</g>
<defs>
<clipPath id="clip0_19_49">
<rect width="84" height="84" fill="white" transform="translate(0.52002)"/>
</clipPath>
</defs>
</svg>
