<svg width="84" height="84" viewBox="0 0 84 84" fill="none" xmlns="http://www.w3.org/2000/svg">
<path d="M16.4693 0.0209961C7.42107 0.0209961 0.015625 7.42627 0.015625 16.4747V67.5333C0.015625 76.5815 7.4209 83.9843 16.4693 83.9843H67.528C76.5763 83.9843 83.9789 76.5816 83.9789 67.5333V16.4747C83.9789 7.42644 76.5763 0.0209961 67.528 0.0209961H16.4693ZM20.6076 13.8766C24.9461 13.8766 27.6184 16.7247 27.7009 20.4685C27.7009 24.1297 24.9459 27.0578 20.5237 27.0578H20.4423C16.1865 27.0578 13.4357 24.1298 13.4357 20.4685C13.4357 16.7248 16.2697 13.8766 20.6076 13.8766H20.6076ZM57.9944 31.3747C66.338 31.3747 72.5927 36.8281 72.5927 48.5473V70.425H59.9127V50.0141C59.9127 44.8851 58.0775 41.3858 53.4887 41.3858C49.9856 41.3858 47.8975 43.7443 46.9807 46.0228C46.6458 46.8379 46.5635 47.9763 46.5635 49.1166V70.425H33.8834C33.8834 70.425 34.0498 35.8495 33.8834 32.2694H46.5661V37.6727C48.2511 35.0729 51.2652 31.3746 57.9944 31.3746V31.3747ZM14.1837 32.2722H26.8637V70.4252H14.1837V32.2722V32.2722Z" fill="#2BA3E7"/>
</svg>
