<svg width="85" height="84" viewBox="0 0 85 84" fill="none" xmlns="http://www.w3.org/2000/svg">
<g clip-path="url(#clip0_19_47)">
<path d="M84.0405 10.2287C80.895 11.9355 77.5587 13.0559 74.1423 13.5525C77.7008 10.94 80.4331 6.80315 81.7197 1.87407C78.3369 4.33292 74.6358 6.06534 70.7764 6.99647C67.6326 2.89413 63.1541 0.330322 58.1971 0.330322C48.6795 0.330322 40.963 9.78173 40.963 21.4388C40.963 23.0935 41.1155 24.7044 41.4092 26.2497C27.0866 25.3692 14.3881 16.9655 5.88804 4.19432C4.40492 7.31197 3.55507 10.9384 3.55507 14.8065C3.55507 22.1301 6.59778 28.5909 11.2217 32.3765C8.48499 32.2715 5.80847 31.3662 3.41562 29.736C3.41464 29.8244 3.41464 29.9128 3.41464 30.0016C3.41464 40.2291 9.35501 48.7609 17.2385 50.7002C14.7008 51.5456 12.0388 51.6693 9.45607 51.0619C11.6489 59.4482 18.0136 65.5509 25.5545 65.7217C19.6565 71.3831 12.2254 74.7579 4.15161 74.7579C2.76036 74.7579 1.38879 74.6579 0.0405273 74.4629C7.66714 80.4523 16.7257 83.9469 26.4579 83.9469C58.157 83.9469 75.4909 51.7813 75.4909 23.8869C75.4909 22.9713 75.4745 22.061 75.441 21.1559C78.8149 18.1684 81.727 14.4681 84.0405 10.2287" fill="#55ACEE"/>
</g>
<defs>
<clipPath id="clip0_19_47">
<rect width="84" height="84" fill="white" transform="translate(0.0405273)"/>
</clipPath>
</defs>
</svg>
